<?xml version="1.0" encoding="UTF-8" standalone="no"?>
<!-- Created with Inkscape (http://www.inkscape.org/) -->

<svg
   width="512"
   height="512"
   viewBox="0 0 512 512.00001"
   version="1.1"
   id="svg1"
   inkscape:version="1.4.2 (f4327f4, 2025-05-13)"
   sodipodi:docname="flowstt-icon-recording.svg"
   xml:space="preserve"
   inkscape:export-filename="flowstt-icon-recording.png"
   inkscape:export-xdpi="96"
   inkscape:export-ydpi="96"
   xmlns:inkscape="http://www.inkscape.org/namespaces/inkscape"
   xmlns:sodipodi="http://sodipodi.sourceforge.net/DTD/sodipodi-0.dtd"
   xmlns:xlink="http://www.w3.org/1999/xlink"
   xmlns="http://www.w3.org/2000/svg"
   xmlns:svg="http://www.w3.org/2000/svg"><sodipodi:namedview
     id="namedview1"
     pagecolor="#000000"
     bordercolor="#767676"
     borderopacity="0.24705882"
     inkscape:showpageshadow="2"
     inkscape:pageopacity="0.0"
     inkscape:pagecheckerboard="0"
     inkscape:deskcolor="#2a2a2a"
     inkscape:document-units="mm"
     showgrid="true"
     inkscape:zoom="0.62352625"
     inkscape:cx="67.358832"
     inkscape:cy="367.26601"
     inkscape:window-width="3840"
     inkscape:window-height="2054"
     inkscape:window-x="7669"
     inkscape:window-y="-11"
     inkscape:window-maximized="1"
     inkscape:current-layer="layer2"><inkscape:grid
       id="grid1"
       units="mm"
       originx="-348.36264"
       originy="-95.380859"
       spacingx="0.99999998"
       spacingy="1"
       empcolor="#0099e5"
       empopacity="0.30196078"
       color="#0099e5"
       opacity="0.14901961"
       empspacing="5"
       enabled="true"
       visible="true" /></sodipodi:namedview><defs
     id="defs1"><linearGradient
       id="linearGradient14"
       inkscape:collect="always"><stop
         style="stop-color:#bbbbbb;stop-opacity:1;"
         offset="0"
         id="stop14" /><stop
         style="stop-color:#bbbbbb;stop-opacity:0;"
         offset="1"
         id="stop15" /></linearGradient><linearGradient
       id="linearGradient10"><stop
         style="stop-color:#a11010;stop-opacity:1;"
         offset="0.18969926"
         id="stop9" /><stop
         style="stop-color:#cec81c;stop-opacity:1;"
         offset="0.63229883"
         id="stop10" /></linearGradient><linearGradient
       id="linearGradient4"><stop
         style="stop-color:#b5b5b5;stop-opacity:1;"
         offset="0.26353809"
         id="stop7" /><stop
         style="stop-color:#1330a9;stop-opacity:1;"
         offset="0.63150686"
         id="stop8" /></linearGradient><inkscape:path-effect
       effect="taper_stroke"
       start_shape="center"
       end_shape="center"
       id="path-effect9"
       is_visible="true"
       lpeversion="1"
       stroke_width="6.4459901"
       subpath="1"
       attach_start="1.1950066"
       end_offset="0.7392974"
       start_smoothing="0.5"
       end_smoothing="0.5"
       jointype="extrapolated"
       miter_limit="100" /><inkscape:path-effect
       effect="taper_stroke"
       start_shape="center"
       end_shape="center"
       id="path-effect9-4"
       is_visible="true"
       lpeversion="1"
       stroke_width="6.4459901"
       subpath="1"
       attach_start="1.1950066"
       end_offset="0.52086481"
       start_smoothing="0.5"
       end_smoothing="0.5"
       jointype="extrapolated"
       miter_limit="100" /><inkscape:path-effect
       effect="taper_stroke"
       start_shape="center"
       end_shape="center"
       id="path-effect9-0"
       is_visible="true"
       lpeversion="1"
       stroke_width="6.4459901"
       subpath="1"
       attach_start="1.1950066"
       end_offset="0.7392974"
       start_smoothing="0.5"
       end_smoothing="0.5"
       jointype="extrapolated"
       miter_limit="100" /><inkscape:path-effect
       effect="taper_stroke"
       start_shape="center"
       end_shape="center"
       id="path-effect9-1"
       is_visible="true"
       lpeversion="1"
       stroke_width="6.4459901"
       subpath="1"
       attach_start="1.1950066"
       end_offset="0.7392974"
       start_smoothing="0.5"
       end_smoothing="0.5"
       jointype="extrapolated"
       miter_limit="100" /><inkscape:path-effect
       effect="taper_stroke"
       start_shape="center"
       end_shape="center"
       id="path-effect9-5"
       is_visible="true"
       lpeversion="1"
       stroke_width="6.4459901"
       subpath="1"
       attach_start="1.1950066"
       end_offset="0.7392974"
       start_smoothing="0.5"
       end_smoothing="0.5"
       jointype="extrapolated"
       miter_limit="100" /><linearGradient
       inkscape:collect="always"
       xlink:href="#linearGradient10"
       id="linearGradient7"
       x1="540.92609"
       y1="48.872143"
       x2="666.33551"
       y2="198.32933"
       gradientUnits="userSpaceOnUse"
       gradientTransform="matrix(2.6169148,0,0,2.6169148,-976.00435,28.941983)" /><linearGradient
       inkscape:collect="always"
       xlink:href="#linearGradient14"
       id="linearGradient15"
       x1="790.63727"
       y1="242.20213"
       x2="1048.8027"
       y2="242.20213"
       gradientUnits="userSpaceOnUse" /><linearGradient
       id="linearGradient9"><stop
         style="stop-color:#129df5;stop-opacity:1;"
         offset="0"
         id="stop9-7" /><stop
         style="stop-color:#8544ec;stop-opacity:1;"
         offset="1"
         id="stop10-5" /></linearGradient><linearGradient
       xlink:href="#linearGradient9"
       id="linearGradient10-6"
       x1="828.6615"
       y1="385.00339"
       x2="1251.6154"
       y2="765.8327"
       gradientUnits="userSpaceOnUse"
       gradientTransform="translate(-69.655155,-298.26697)" /></defs><g
     inkscape:groupmode="layer"
     id="layer2"
     inkscape:label="Layer 2"
     style="opacity:1"
     transform="translate(-348.36264,-95.380863)"><path
       id="path9-3"
       style="baseline-shift:baseline;display:inline;overflow:visible;opacity:1;vector-effect:none;fill:url(#linearGradient7);fill-opacity:1;stroke:none;stroke-width:2.61691;stroke-linecap:round;enable-background:accumulate;stop-color:#000000;stop-opacity:1"
       inkscape:label="path9-3"
       d="M 465.57748 147.38086 C 422.17302 147.38086 386.96811 182.5858 386.96811 225.99024 L 386.96811 361.06837 C 386.96811 404.47284 422.17302 439.67774 465.57748 439.67774 C 508.98194 439.67774 544.19272 404.47284 544.19272 361.06837 L 544.19272 225.99024 C 544.19272 182.5858 508.98194 147.38086 465.57748 147.38086 z M 858.931 186.2461 L 848.78452 186.27149 C 813.77154 186.36599 747.57298 185.69464 724.26694 186.60352 C 714.58621 186.98107 690.58287 189.09236 669.43296 205.95508 C 663.1459 210.96775 634.92702 228.90618 629.60678 265.66797 C 626.63821 286.1801 625.15446 309.58588 623.88413 333.11524 C 626.97442 300.02441 663.2962 281.0119 694.8021 279.6504 C 694.8021 279.6504 698.03415 273.20568 700.70835 269.33204 C 705.67347 262.13995 712.69359 257.09431 723.92319 255.91602 C 760.38297 252.09035 788.83448 259.87493 821.72983 247.43165 C 839.13119 240.84925 851.96319 224.34801 857.10483 196.22266 L 858.931 186.2461 z M 411.19077 224.69336 L 439.22983 224.69336 C 446.15068 224.69336 451.72202 230.2647 451.72202 237.18555 C 451.72202 244.1064 446.15068 249.67969 439.22983 249.67969 L 411.19077 249.67969 C 404.26992 249.67969 398.69858 244.1064 398.69858 237.18555 C 398.69858 230.2647 404.26992 224.69336 411.19077 224.69336 z M 491.51499 224.69336 L 519.55405 224.69336 C 526.4749 224.69336 532.04624 230.2647 532.04624 237.18555 C 532.04624 244.1064 526.4749 249.67969 519.55405 249.67969 L 491.51499 249.67969 C 484.59414 249.67969 479.0228 244.1064 479.0228 237.18555 C 479.0228 230.2647 484.59414 224.69336 491.51499 224.69336 z M 411.19077 263.51172 L 439.22983 263.51172 C 446.15068 263.51172 451.72202 269.08306 451.72202 276.00391 C 451.72202 282.92476 446.15068 288.4961 439.22983 288.4961 L 411.19077 288.4961 C 404.26992 288.4961 398.69858 282.92476 398.69858 276.00391 C 398.69858 269.08306 404.26992 263.51172 411.19077 263.51172 z M 491.51499 263.51172 L 519.55405 263.51172 C 526.4749 263.51172 532.04624 269.08306 532.04624 276.00391 C 532.04624 282.92476 526.4749 288.4961 519.55405 288.4961 L 491.51499 288.4961 C 484.59414 288.4961 479.0228 282.92476 479.0228 276.00391 C 479.0228 269.08306 484.59414 263.51172 491.51499 263.51172 z M 802.90366 293.01758 C 799.69231 293.03328 796.48027 293.04609 793.26889 293.05469 C 758.7342 293.14789 716.95171 292.87448 694.34507 293.75586 C 682.86906 294.20341 665.16039 300.49598 649.30014 315.3711 C 640.42764 323.69247 634.85561 334.35431 630.81577 346.08204 C 629.97116 348.55941 629.20135 351.06237 628.4935 353.58008 C 649.59849 334.25998 677.74954 322.50001 708.74936 322.50001 C 735.16374 322.50001 759.51141 331.03739 779.19272 345.51563 C 789.08057 336.69456 797.90308 323.16952 801.58921 303.00587 C 802.19341 299.70084 802.63203 296.36639 802.90366 293.01758 z M 411.19077 302.33008 L 439.22983 302.33008 C 446.15068 302.33008 451.72202 307.90142 451.72202 314.82227 C 451.72202 321.74312 446.15068 327.31446 439.22983 327.31446 L 411.19077 327.31446 C 404.26992 327.31446 398.69858 321.74312 398.69858 314.82227 C 398.69858 307.90142 404.26992 302.33008 411.19077 302.33008 z M 491.51499 302.33008 L 519.55405 302.33008 C 526.4749 302.33008 532.04624 307.90142 532.04624 314.82227 C 532.04624 321.74312 526.4749 327.31446 519.55405 327.31446 L 491.51499 327.31446 C 484.59414 327.31446 479.0228 321.74312 479.0228 314.82227 C 479.0228 307.90142 484.59414 302.33008 491.51499 302.33008 z M 356.79623 319.49415 C 352.1388 319.49465 348.36314 323.27031 348.36264 327.92774 L 348.36264 362.87696 C 348.36264 424.39427 396.46237 474.57135 457.14389 477.88868 L 457.14389 540.54102 L 399.88412 540.54102 C 395.22666 540.54149 391.44908 544.31717 391.44858 548.97462 C 391.44906 553.63207 395.22666 557.40774 399.88412 557.40821 L 531.2767 557.40821 C 535.93416 557.40774 539.70786 553.63207 539.70834 548.97462 C 539.70784 544.31717 535.93416 540.54149 531.2767 540.54102 L 474.01498 540.54102 L 474.01498 477.88868 C 534.69652 474.57135 582.79624 424.39427 582.79624 362.87696 L 582.79624 327.92774 C 582.79574 323.27031 579.02006 319.49465 574.36264 319.49415 C 569.70319 319.49215 565.92368 323.26829 565.92319 327.92774 L 565.92319 362.87696 C 565.92319 417.48996 522.22363 461.19532 467.61069 461.19532 L 463.54623 461.19532 C 408.93326 461.19532 365.22983 417.48996 365.22983 362.87696 L 365.22983 327.92774 C 365.22933 323.27031 361.45366 319.49465 356.79623 319.49415 z M 593.53842 470.25391 C 593.03973 470.81082 592.53383 471.35875 592.01889 471.89649 C 582.50282 482.01048 570.08682 488.99814 558.55991 493.83009 C 523.14848 508.62427 495.20444 509.0879 495.20444 509.0879 C 495.20444 509.0879 501.90639 509.54091 513.61264 509.28126 C 524.7267 509.03475 542.66068 507.98499 561.60678 502.56251 C 573.35807 499.20781 586.39584 493.65311 598.00913 484.35548 C 596.23888 479.78677 594.74118 475.07991 593.53842 470.25391 z M 602.59897 494.70118 C 602.2483 495.04124 601.89678 495.37936 601.54428 495.7168 C 601.97229 495.527 602.39879 495.338 602.82358 495.14649 C 602.74847 494.99857 602.67348 494.84946 602.59897 494.70118 z " /><rect
       style="fill:#ff0000;stroke-width:1.06924;-inkscape-stroke:none"
       id="rect1"
       width="197.5"
       height="197.5"
       x="610"
       y="342.5"
       rx="128.10811"
       ry="128.10811" /></g></svg>
